<?xml version="1.0" encoding="UTF-8" standalone="no"?>
<!-- Created with Inkscape (http://www.inkscape.org/) -->

<svg
   width="16"
   height="16"
   viewBox="0 0 4.2333332 4.2333333"
   version="1.1"
   id="svg1"
   sodipodi:docname="color.svg"
   inkscape:version="1.3.2 (091e20ef0f, 2023-11-25, custom)"
   inkscape:export-filename="color.png"
   inkscape:export-xdpi="192"
   inkscape:export-ydpi="192"
   xmlns:inkscape="http://www.inkscape.org/namespaces/inkscape"
   xmlns:sodipodi="http://sodipodi.sourceforge.net/DTD/sodipodi-0.dtd"
   xmlns="http://www.w3.org/2000/svg"
   xmlns:svg="http://www.w3.org/2000/svg">
  <sodipodi:namedview
     id="namedview1"
     pagecolor="#505050"
     bordercolor="#eeeeee"
     borderopacity="1"
     inkscape:showpageshadow="0"
     inkscape:pageopacity="0"
     inkscape:pagecheckerboard="0"
     inkscape:deskcolor="#505050"
     inkscape:document-units="mm"
     showgrid="true"
     inkscape:zoom="45.254834"
     inkscape:cx="10.219903"
     inkscape:cy="8.6510095"
     inkscape:window-width="1920"
     inkscape:window-height="1012"
     inkscape:window-x="0"
     inkscape:window-y="32"
     inkscape:window-maximized="1"
     inkscape:current-layer="layer1">
    <inkscape:grid
       id="grid1"
       units="px"
       originx="0"
       originy="0"
       spacingx="0.13229166"
       spacingy="0.13229166"
       empcolor="#0099e5"
       empopacity="0.30196078"
       color="#0099e5"
       opacity="0.14901961"
       empspacing="2"
       dotted="false"
       gridanglex="30"
       gridanglez="30"
       visible="true" />
  </sodipodi:namedview>
  <defs
     id="defs1" />
  <g
     inkscape:label="Calque 1"
     inkscape:groupmode="layer"
     id="layer1">
    <path
       id="path1"
       style="fill:#000000;stroke:#000100;stroke-width:0;stroke-linejoin:round;paint-order:stroke fill markers"
       d="M 1.8267619 0.79375 C 1.0781862 0.79462872 0.25889893 1.1089648 0.25889893 1.7445964 C 0.25889893 2.5921052 0.84207914 3.4459926 1.9022095 3.4395833 C 2.9623398 3.433174 4.1623022 2.5920977 3.9568644 2.1683431 C 3.7514266 1.7445886 2.7241471 2.3802241 2.5187093 1.9564697 C 2.388779 1.6884638 3.3403646 1.7446002 3.3403646 1.532723 C 3.3403646 1.3208457 3.1350224 1.1089801 2.5187093 0.89710286 C 2.3178158 0.82803932 2.0762871 0.79345709 1.8267619 0.79375 z M 1.984375 0.92604167 A 0.52916668 0.22854427 0 0 1 2.5243937 1.1482503 L 2.5243937 1.1544515 A 0.52916668 0.22854427 0 0 1 1.9988444 1.3828613 A 0.52916668 0.22854427 0 0 1 1.4660604 1.1575521 A 0.52916668 0.22854427 0 0 1 1.984375 0.92604167 z M 1.0438639 1.3952637 A 0.52916668 0.22854427 0 0 1 1.5838826 1.6174723 L 1.5838826 1.6236735 A 0.52916668 0.22854427 0 0 1 1.0583333 1.8520833 A 0.52916668 0.22854427 0 0 1 0.52554932 1.6267741 A 0.52916668 0.22854427 0 0 1 1.0438639 1.3952637 z M 1.4407389 2.1890137 A 0.52916668 0.22854427 0 0 1 1.9807576 2.4112223 L 1.9807576 2.4174235 A 0.52916668 0.22854427 0 0 1 1.4552083 2.6458333 A 0.52916668 0.22854427 0 0 1 0.92242432 2.4205241 A 0.52916668 0.22854427 0 0 1 1.4407389 2.1890137 z M 2.7636556 2.4174235 A 0.52916668 0.22854427 0 0 1 3.3036743 2.6396322 L 3.3036743 2.6458333 A 0.52916668 0.22854427 0 0 1 2.778125 2.8742432 A 0.52916668 0.22854427 0 0 1 2.245341 2.6489339 A 0.52916668 0.22854427 0 0 1 2.7636556 2.4174235 z " />
  </g>
</svg>
